# xmcd
#
# Track frame offsets: 
#        150
#        30284
#        51217
#        70671
#        86300
#        114129
#        140669
#        165404
#        198391
#        222632
#        236155
#        254116
#        273000
#
# Disc length: 4011 seconds
#
# Revision: 1
# Processed by: cddbd v1.5.2PL0 Copyright (c) Steve Scherf et al.
# Submitted via: ExactAudioCopy v1.3
#
DISCID=b30fa90d
DTITLE=Prince - 1999 disc3
DYEAR=2019
DGENRE=R&B
TTITLE0=Feel U Up
TTITLE1=Irresistible Bitch
TTITLE2=Money Don't Grow on Trees
TTITLE3=Vagina
TTITLE4=Rearrange
TTITLE5=Bold Generation
TTITLE6=Colleen
TTITLE7=International Lover (take1, live in studio)
TTITLE8=Turn It Up
TTITLE9=You're All I Want
TTITLE10=Something in the Water (Does Not Compute) (original version)
TTITLE11=If It'll Make U Happy
TTITLE12=How Come U Don't Call Me Anymore? (take2, live in studio)
EXTD=
EXTT0=
EXTT1=
EXTT2=
EXTT3=
EXTT4=
EXTT5=
EXTT6=
EXTT7=
EXTT8=
EXTT9=
EXTT10=
EXTT11=
EXTT12=
PLAYORDER=
